<?xml version="1.0" encoding="UTF-8" standalone="no"?>
<!-- Created with Inkscape (http://www.inkscape.org/) -->

<svg
   width="200mm"
   height="120mm"
   viewBox="0 0 200 120"
   version="1.1"
   id="svg354"
   xml:space="preserve"
   inkscape:version="1.2.2 (b0a8486541, 2022-12-01)"
   sodipodi:docname="logo-color.svg"
   xmlns:inkscape="http://www.inkscape.org/namespaces/inkscape"
   xmlns:sodipodi="http://sodipodi.sourceforge.net/DTD/sodipodi-0.dtd"
   xmlns="http://www.w3.org/2000/svg"
   xmlns:svg="http://www.w3.org/2000/svg"><sodipodi:namedview
     id="namedview356"
     pagecolor="#ffffff"
     bordercolor="#666666"
     borderopacity="1.0"
     inkscape:showpageshadow="2"
     inkscape:pageopacity="0.0"
     inkscape:pagecheckerboard="0"
     inkscape:deskcolor="#d1d1d1"
     inkscape:document-units="mm"
     showgrid="false"
     inkscape:zoom="0.914906"
     inkscape:cx="590.77107"
     inkscape:cy="290.19375"
     inkscape:window-width="1920"
     inkscape:window-height="1003"
     inkscape:window-x="0"
     inkscape:window-y="0"
     inkscape:window-maximized="1"
     inkscape:current-layer="layer1" /><defs
     id="defs351" /><g
     inkscape:label="Layer 1"
     inkscape:groupmode="layer"
     id="layer1"><path
       style="fill:#e5261f;fill-opacity:1;stroke-width:0.264583"
       d="m 177.29289,57.730625 v -11.50937 h 3.70417 3.70417 v 1.4552 1.45521 h -2.24896 -2.24896 v 4.09034 4.09035 l 2.18281,0.0768 2.18281,0.0769 0.08,1.38906 0.08,1.38906 h -2.26279 -2.26278 v 4.49792 4.49792 h -1.45521 -1.45521 z"
       id="path1607" /><path
       style="fill:#000000;stroke-width:0.264583"
       d="m 146.33664,57.717425 v -11.52258 l 1.49062,0.0794 1.49062,0.0793 0.74616,3.175 c 0.41039,1.74625 1.23112,5.37095 1.82383,8.05489 0.59271,2.68394 1.11364,4.91587 1.15761,4.95985 0.044,0.044 0.39051,-1.37808 0.77008,-3.16011 0.37956,-1.78203 1.19777,-5.47247 1.81822,-8.20099 l 1.12811,-4.96093 h 1.53425 1.53425 v 11.50937 11.50938 h -1.4552 -1.45521 l -0.008,-6.15157 c -0.005,-3.78043 -0.1,-5.9946 -0.24649,-5.74434 -0.13116,0.22397 -0.60638,2.17639 -1.05605,4.33872 -1.66236,7.99367 -1.51584,7.55719 -2.53688,7.55719 -1.05116,0 -0.91345,0.3823 -2.38262,-6.61459 -0.53473,-2.54661 -1.0745,-4.8088 -1.19949,-5.02708 -0.13174,-0.23009 -0.23063,2.13275 -0.23529,5.6224 l -0.008,6.01927 h -1.45521 -1.45521 z"
       id="path1605" /><path
       style="fill:#000000;stroke-width:0.264583"
       d="m 137.86998,57.730625 v -11.50937 h 1.45521 1.4552 v 10.05416 10.05417 h 2.11667 2.11667 v 1.45521 1.45521 h -3.57188 -3.57187 z"
       id="path1603" /><path
       style="fill:#000000;stroke-width:0.264583"
       d="m 133.37206,57.730625 v -11.50937 h 1.5875 1.5875 v 11.50937 11.50938 h -1.5875 -1.5875 z"
       id="path1601" /><path
       style="fill:#000000;stroke-width:0.264583"
       d="m 124.64081,57.730625 v -11.50937 h 3.70417 3.70417 v 1.4552 1.45521 h -2.11667 -2.11667 v 4.10104 4.10105 h 2.11667 2.11667 v 1.4552 1.45521 h -2.11667 -2.11667 v 4.49792 4.49792 h -1.5875 -1.5875 z"
       id="path1599" /><path
       style="fill:#e5261f;fill-opacity:1;stroke-width:0.264583"
       d="m 169.18384,69.231255 c -1.06739,-0.32935 -2.37628,-1.81952 -2.71992,-3.09663 -0.14735,-0.54762 -0.34805,-1.85887 -0.446,-2.91389 l -0.1781,-1.91823 h 1.46635 1.46635 l 0.18224,1.81467 c 0.22323,2.2228 0.57271,2.96374 1.551,3.28834 1.67349,0.55526 2.80394,-1.15698 2.45322,-3.71577 -0.23825,-1.7382 -0.79584,-2.55908 -2.96107,-4.35928 -2.18215,-1.81426 -3.44956,-3.4839 -3.7138,-4.89245 -0.31053,-1.65523 0.0333,-4.80245 0.6096,-5.58059 0.99207,-1.33945 2.13014,-1.90076 3.85385,-1.90076 3.03815,0 4.6117,1.66448 4.8936,5.17638 l 0.13668,1.70279 h -1.45442 -1.45441 l -0.15301,-1.48251 c -0.1842,-1.78475 -0.73166,-2.48624 -1.9403,-2.48624 -1.29309,0 -1.7808,0.8763 -1.63207,2.93246 l 0.11615,1.60578 2.93559,2.82411 c 3.37461,3.24646 3.63028,3.7733 3.61755,7.45432 -0.009,2.671 -0.44412,3.85771 -1.78985,4.88415 -1.05935,0.808 -3.35192,1.12226 -4.83923,0.66335 z"
       id="path1597" /><path
       style="fill:#000000;stroke-width:0.264583"
       d="m 177.12605,87.099375 v -11.50937 h 3.70417 3.70417 v 1.4445 1.44451 l -2.18282,0.0769 -2.18281,0.0768 v 3.43959 3.43958 l 2.18281,0.0769 2.18282,0.0768 v 1.43381 1.43381 l -2.18282,0.0769 -2.18281,0.0768 v 3.43958 3.43959 l 2.18281,0.0768 2.18282,0.0769 v 1.44451 1.44451 h -3.70417 -3.70417 z"
       id="path1595" /><path
       style="fill:#000000;stroke-width:0.264583"
       d="m 153.04897,87.099375 v -11.50937 h 1.46351 c 1.15546,0 1.49776,0.0975 1.62619,0.46302 0.0895,0.25466 0.54428,1.47505 1.01068,2.71198 0.46639,1.23692 1.60984,4.32788 2.54099,6.86878 l 1.693,4.61982 0.0703,-7.3318 0.0703,-7.3318 h 1.45102 1.45102 v 11.50937 11.50938 h -1.4362 -1.43619 l -0.56097,-1.52136 c -0.30853,-0.83674 -1.53748,-4.12318 -2.73099,-7.30319 l -2.17002,-5.78183 -0.0703,7.30319 -0.0703,7.30319 h -1.45103 -1.45102 z"
       id="path1593" /><path
       style="fill:#000000;stroke-width:0.264583"
       d="m 141.4073,98.401635 c 0,-0.11391 0.47997,-3.47742 1.0666,-7.47448 0.58662,-3.99705 1.23714,-8.51752 1.44559,-10.04549 0.20844,-1.52797 0.45903,-3.34367 0.55686,-4.03489 l 0.17788,-1.25677 h 2.04751 2.04751 l 0.44134,2.83368 c 0.24273,1.55852 0.66911,4.50532 0.9475,6.54843 0.2784,2.04312 0.80911,5.76895 1.17936,8.27963 0.37025,2.51068 0.67319,4.7431 0.67319,4.96094 0,0.30249 -0.33541,0.39607 -1.41959,0.39607 h -1.41957 l -0.36636,-2.31511 -0.36636,-2.3151 h -1.71979 -1.71979 l -0.36636,2.3151 -0.36635,2.31511 h -1.41958 c -0.78077,0 -1.41959,-0.0932 -1.41959,-0.20712 z m 6.73716,-8.1934 c -0.31947,-1.80504 -1.18091,-8.95263 -1.18091,-9.79833 0,-1.96504 -0.33903,-0.45085 -0.94578,4.22406 -0.88149,6.79185 -0.94423,6.30187 0.80688,6.30187 1.43511,0 1.44739,-0.007 1.31981,-0.7276 z"
       id="path1591" /><path
       style="fill:#000000;stroke-width:0.264583"
       d="m 137.43855,87.099375 v -11.50937 h 1.45521 1.45521 v 11.50937 11.50938 h -1.45521 -1.45521 z"
       id="path1589" /><path
       style="fill:#000000;stroke-width:0.264583"
       d="m 128.97189,87.099375 v -11.50937 h 1.45521 1.4552 v 10.05416 10.05417 h 2.24896 2.24896 v 1.45521 1.45521 h -3.70417 -3.70416 z"
       id="path1587" /><path
       style="fill:#000000;stroke-width:0.264583"
       d="m 120.24064,87.099375 v -11.50937 h 1.45202 1.45203 l 0.0693,9.98802 0.0693,9.98802 2.18281,0.0768 2.18281,0.0769 v 1.44451 1.44451 h -3.70417 -3.70416 z"
       id="path1585" /><path
       style="fill:#000000;stroke-width:0.264583"
       d="m 108.86162,97.894975 c -0.001,-0.40779 0.29104,-2.70596 0.64911,-5.10706 0.35808,-2.40109 1.02223,-6.985 1.47589,-10.18646 0.45366,-3.20145 0.8782,-6.08872 0.94343,-6.41614 0.11075,-0.55595 0.25384,-0.59522 2.16407,-0.59395 l 2.04548,0.001 0.87926,6.2825 c 0.48359,3.45536 1.22773,8.57434 1.65364,11.37549 0.42591,2.80116 0.77439,5.15265 0.77439,5.22553 0,0.0729 -0.65258,0.13251 -1.45017,0.13251 -1.63581,0 -1.51741,0.18083 -1.90569,-2.91042 l -0.21602,-1.71979 -1.30538,-0.0826 c -2.3545,-0.14904 -2.42588,-0.0856 -2.69263,2.39352 l -0.23532,2.18706 -1.38906,0.08 c -1.36387,0.0785 -1.3891,0.0665 -1.391,-0.66146 z m 6.61652,-7.07597 c 0,-0.65944 -1.36308,-11.38861 -1.45905,-11.48459 -0.0707,-0.0706 -0.12845,0.063 -0.12845,0.29708 0,0.56733 -1.00685,9.35128 -1.19718,10.44444 l -0.14972,0.8599 h 1.4672 c 0.80696,0 1.4672,-0.0526 1.4672,-0.11683 z"
       id="path1583" /><path
       style="fill:#000000;stroke-width:0.264583"
       d="m 168.38472,98.278025 c -0.90366,-0.45569 -1.33568,-0.90559 -1.842,-1.91823 l -0.66146,-1.32292 v -7.9375 -7.9375 l 0.66146,-1.30917 c 0.90992,-1.80092 1.74727,-2.34639 3.80286,-2.47729 2.34189,-0.14912 3.87881,0.54051 4.70354,2.11053 0.50864,0.96827 0.6185,1.65356 0.70582,4.4027 l 0.10342,3.25593 -1.41667,-0.0809 -1.41668,-0.0809 -0.13229,-2.81687 c -0.15091,-3.2134 -0.511,-3.93 -1.97481,-3.93 -2.00342,0 -2.23707,0.91433 -2.23123,8.73125 0.005,6.32706 0.19395,8.11632 0.91403,8.64285 0.68861,0.50352 1.80774,0.43614 2.53509,-0.15264 0.56894,-0.46054 0.63642,-0.7613 0.75692,-3.37344 l 0.13229,-2.86781 h 1.32292 1.32291 l 0.0761,2.61363 c 0.0879,3.01887 -0.34352,4.71671 -1.47227,5.79348 -1.46933,1.40166 -3.87798,1.66946 -5.88999,0.65487 z"
       id="path1581" /><path
       style="fill:#e5261f;fill-opacity:1;stroke-width:0.264583"
       d="m 41.923949,91.510345 c 0,-4.48758 -0.06965,-8.22889 -0.154784,-8.31402 -0.08513,-0.0851 -0.472085,-0.0559 -0.859896,0.0651 -0.387813,0.12091 -2.431517,0.60416 -4.54157,1.07389 -2.110052,0.46973 -6.33677,1.43908 -9.392707,2.1541 -3.055938,0.71502 -6.568281,1.52601 -7.805208,1.8022 -1.236927,0.2762 -3.558646,0.80447 -5.159375,1.17395 -1.600729,0.36948 -3.118776,0.67285 -3.373437,0.67417 -0.436522,0.002 -0.463021,-1.04242 -0.463021,-18.25385 0,-13.0626 0.08251,-18.25625 0.290038,-18.25625 0.305401,0 6.997138,1.83768 11.483919,3.15371 1.455208,0.42683 6.336771,1.80519 10.847916,3.06303 4.511145,1.25783 8.410443,2.34619 8.665104,2.41857 0.434072,0.12337 0.46302,-0.39819 0.46302,-8.3426 v -8.47419 l 2.315104,-0.0764 2.315104,-0.0764 -0.08002,-1.26267 c -0.239998,-3.78719 1.087872,-9.14325 3.130706,-12.62795 4.496906,-7.67089 13.290212,-12.01287 22.079948,-10.9027 2.956034,0.37335 5.085566,1.05073 7.816906,2.48645 4.235181,2.22621 7.333,5.43828 9.520326,9.87146 1.57096,3.18395 2.11215,5.35653 2.339731,9.39271 l 0.17157,3.0427 2.316353,0.0765 2.316338,0.0765 -0.0674,27.04333 -0.0674,27.04333 -27.053639,0.0674 -27.053645,0.0674 z m 51.064584,-18.96305 v -24.20938 l -1.124481,0.002 -1.12448,0.002 -0.488471,1.51944 c -0.268649,0.83569 -0.95953,2.40339 -1.53527,3.48379 -3.668813,6.88458 -10.484894,11.2871 -18.297777,11.81855 -6.560695,0.44629 -12.523459,-1.84029 -17.249314,-6.6147 -2.637366,-2.66446 -4.1993,-5.07738 -5.307647,-8.19942 l -0.714095,-2.01137 h -1.156316 -1.156316 v 7.54063 c 0,6.18028 0.06489,7.54062 0.359724,7.54062 0.197851,0 2.608866,0.64018 5.357813,1.42262 2.74895,0.78244 7.855588,2.22756 11.348088,3.21139 3.4925,0.98382 8.969374,2.53142 12.170832,3.43911 3.201459,0.90769 6.207787,1.73422 6.680729,1.83672 1.25535,0.27208 1.05832,0.54615 -0.661458,0.92007 -1.290296,0.28055 -14.51135,3.32355 -29.567186,6.80528 -2.182812,0.50478 -4.355703,0.98567 -4.828646,1.06863 l -0.859895,0.15084 v 7.24142 7.24142 h 24.077082 24.077084 z m -76.472505,13.63069 c 1.823368,-0.434 5.696464,-1.336 8.60688,-2.00444 2.910418,-0.66844 7.018074,-1.61254 9.128125,-2.09799 5.670666,-1.30463 6.14976,-1.41366 6.94936,-1.58155 l 0.731652,-0.15362 -0.07019,-7.58053 -0.07019,-7.58054 -1.984374,-0.5918 c -1.091407,-0.3255 -4.60375,-1.3274 -7.805208,-2.22645 -3.201459,-0.89905 -8.723433,-2.45752 -12.271054,-3.46327 -3.547621,-1.00574 -6.553948,-1.82863 -6.680728,-1.82863 -0.128236,0 -0.230509,6.63259 -0.230509,14.94896 0,8.22193 0.08573,14.94896 0.190515,14.94896 0.104784,0 1.682362,-0.35509 3.505729,-0.7891 z m 34.006879,-7.83657 c 2.182812,-0.50129 5.218906,-1.20364 6.746876,-1.56079 4.682614,-1.0945 10.635011,-2.45673 12.236977,-2.80047 0.836744,-0.17954 1.521354,-0.41331 1.521354,-0.51948 0,-0.10617 -0.443636,-0.27626 -0.985857,-0.37798 -0.542222,-0.10172 -1.881675,-0.45998 -2.976563,-0.79614 -1.094888,-0.33615 -3.538516,-1.04156 -5.430287,-1.56758 -1.89177,-0.52601 -6.162112,-1.73002 -9.489646,-2.67558 -3.327535,-0.94555 -6.333863,-1.79042 -6.680729,-1.87747 l -0.630666,-0.15829 v 6.79658 6.79658 l 0.859896,-0.17397 c 0.472943,-0.0957 2.645834,-0.58412 4.828645,-1.08541 z m 24.687173,-17.0926 c 5.448437,-1.96549 9.710194,-6.014 11.835669,-11.24343 l 0.623964,-1.53518 -18.549556,-0.0679 c -10.202253,-0.0374 -18.607241,-0.0103 -18.677747,0.0603 -0.241951,0.24195 0.806911,2.6548 1.996252,4.59228 2.368324,3.85807 6.113918,6.80436 10.483046,8.24598 2.319012,0.76517 2.580124,0.79467 6.386616,0.72157 3.508205,-0.0674 4.193061,-0.15712 5.901756,-0.77353 z m 13.113772,-16.41663 c 0.274101,-1.02282 0.182681,-3.21128 -0.236189,-5.65388 -0.62738,-3.65847 -2.507584,-7.23729 -5.263677,-10.01897 -3.287173,-3.31769 -6.943,-5.13226 -11.523551,-5.71969 -8.953686,-1.14826 -17.460209,4.09456 -20.686397,12.74963 -0.705434,1.89251 -0.848915,2.69189 -0.955847,5.32536 -0.0692,1.70423 -0.05551,3.28181 0.03042,3.50573 0.138635,0.36127 2.314554,0.40714 19.31597,0.40714 h 19.159742 z"
       id="path487" /></g></svg>
