<?xml version="1.0" encoding="UTF-8" standalone="no"?>
<!-- Created with Inkscape (http://www.inkscape.org/) -->

<svg
   width="100mm"
   height="100mm"
   viewBox="0 0 100 100"
   version="1.1"
   id="svg777"
   inkscape:version="1.2.2 (b0a8486541, 2022-12-01)"
   sodipodi:docname="logo-shapes.svg"
   xmlns:inkscape="http://www.inkscape.org/namespaces/inkscape"
   xmlns:sodipodi="http://sodipodi.sourceforge.net/DTD/sodipodi-0.dtd"
   xmlns="http://www.w3.org/2000/svg"
   xmlns:svg="http://www.w3.org/2000/svg">
  <sodipodi:namedview
     id="namedview779"
     pagecolor="#ffffff"
     bordercolor="#666666"
     borderopacity="1.0"
     inkscape:showpageshadow="2"
     inkscape:pageopacity="0.0"
     inkscape:pagecheckerboard="0"
     inkscape:deskcolor="#d1d1d1"
     inkscape:document-units="mm"
     showgrid="false"
     inkscape:zoom="0.914906"
     inkscape:cx="368.89035"
     inkscape:cy="301.12383"
     inkscape:window-width="1920"
     inkscape:window-height="1003"
     inkscape:window-x="0"
     inkscape:window-y="0"
     inkscape:window-maximized="1"
     inkscape:current-layer="layer1" />
  <defs
     id="defs774" />
  <g
     inkscape:label="Layer 1"
     inkscape:groupmode="layer"
     id="layer1">
    <path
       d="m 38.753958,81.510346 c 0,-4.48758 -0.06965,-8.228891 -0.154784,-8.314021 -0.08513,-0.0851 -0.472085,-0.0559 -0.859896,0.0651 -0.387813,0.12091 -2.431517,0.60416 -4.54157,1.07389 -2.110052,0.46973 -6.33677,1.43908 -9.392707,2.154101 -3.055938,0.71502 -6.568281,1.52601 -7.805208,1.8022 -1.236927,0.2762 -3.558646,0.80447 -5.159375,1.17395 -1.6007285,0.36948 -3.1187755,0.67285 -3.3734365,0.67417 -0.436522,0.002 -0.463021,-1.04242 -0.463021,-18.253851 0,-13.0626 0.08251,-18.25625 0.290038,-18.25625 0.305401,0 6.9971375,1.83768 11.4839185,3.15371 1.455208,0.42683 6.336771,1.80519 10.847916,3.06303 4.511145,1.25783 8.410443,2.34619 8.665104,2.41857 0.434072,0.12337 0.46302,-0.39819 0.46302,-8.3426 v -8.47419 l 2.315104,-0.0764 2.315104,-0.0764 -0.08002,-1.26267 c -0.239998,-3.78719 1.087872,-9.14325 3.130706,-12.62795 4.496906,-7.67089 13.290211,-12.0128704 22.079947,-10.9027 2.956034,0.37335 5.085566,1.05073 7.816906,2.48645 4.235181,2.22621 7.333,5.43828 9.520326,9.87146 1.57096,3.18395 2.11215,5.35653 2.33973,9.39271 l 0.17157,3.0427 2.31636,0.0765 2.31635,0.0765 -0.0674,27.04333 -0.0674,27.043331 -27.053656,0.0674 -27.053644,0.0674 z M 89.818539,62.547295 v -24.20938 l -1.12448,0.002 -1.124479,0.002 -0.488471,1.51944 c -0.268649,0.83569 -0.95953,2.40339 -1.53527,3.48379 -3.668813,6.88458 -10.484893,11.2871 -18.297776,11.81855 -6.560695,0.44629 -12.523459,-1.84029 -17.249313,-6.6147 -2.637366,-2.66446 -4.1993,-5.07738 -5.307648,-8.19942 l -0.714095,-2.01137 h -1.156315 -1.156316 v 7.54063 c 0,6.18028 0.06489,7.54062 0.359724,7.54062 0.197851,0 2.608866,0.64018 5.357813,1.42262 2.74895,0.78244 7.855588,2.22756 11.348087,3.21139 3.4925,0.98382 8.969374,2.53142 12.170832,3.43911 3.201459,0.90769 6.207787,1.73422 6.680729,1.83672 1.25535,0.27208 1.05832,0.54615 -0.661458,0.92007 -1.290296,0.28055 -14.51135,3.32355 -29.567185,6.80528 -2.182812,0.50478 -4.355703,0.98567 -4.828646,1.06863 l -0.859895,0.15084 v 7.241421 7.24142 h 24.07708 24.077082 z M 13.346037,76.177986 c 1.823368,-0.434001 5.696464,-1.336001 8.60688,-2.004441 2.910418,-0.66844 7.018074,-1.61254 9.128125,-2.09799 5.670666,-1.30463 6.14976,-1.41366 6.94936,-1.58155 l 0.731652,-0.15362 -0.07019,-7.58053 -0.07019,-7.58054 -1.984374,-0.5918 c -1.091407,-0.3255 -4.60375,-1.3274 -7.805208,-2.22645 -3.201459,-0.89905 -8.723433,-2.45752 -12.271054,-3.46327 -3.547621,-1.00574 -6.553948,-1.82863 -6.6807275,-1.82863 -0.128236,0 -0.230509,6.63259 -0.230509,14.94896 0,8.22193 0.08573,14.948961 0.190515,14.948961 0.104784,0 1.6823615,-0.35509 3.5057285,-0.7891 z m 34.006879,-7.836571 c 2.182812,-0.50129 5.218906,-1.20364 6.746876,-1.56079 4.682613,-1.0945 10.63501,-2.45673 12.236976,-2.80047 0.836744,-0.17954 1.521354,-0.41331 1.521354,-0.51948 0,-0.10617 -0.443636,-0.27626 -0.985857,-0.37798 -0.542221,-0.10172 -1.881675,-0.45998 -2.976563,-0.79614 -1.094887,-0.33615 -3.538516,-1.04156 -5.430287,-1.56758 -1.89177,-0.52601 -6.162111,-1.73002 -9.489645,-2.67558 -3.327535,-0.94555 -6.333863,-1.79042 -6.680729,-1.87747 l -0.630666,-0.15829 v 6.79658 6.79658 l 0.859896,-0.17397 c 0.472943,-0.0957 2.645834,-0.58412 4.828645,-1.08541 z m 24.687172,-17.0926 c 5.448437,-1.96549 9.710194,-6.014 11.835669,-11.24343 l 0.623964,-1.53518 -18.549556,-0.0679 c -10.202253,-0.0374 -18.60724,-0.0103 -18.677746,0.0603 -0.241951,0.24195 0.806911,2.6548 1.996252,4.59228 2.368324,3.85807 6.113918,6.80436 10.483045,8.24598 2.319013,0.76517 2.580124,0.79467 6.386617,0.72157 3.508205,-0.0674 4.193061,-0.15712 5.901756,-0.77353 z M 85.15386,34.832185 c 0.274101,-1.02282 0.182681,-3.21128 -0.236189,-5.65388 -0.62738,-3.65847 -2.507583,-7.23729 -5.263677,-10.01897 -3.287173,-3.31769 -6.943,-5.13226 -11.523551,-5.71969 -8.953686,-1.14826 -17.460208,4.09456 -20.686396,12.74963 -0.705434,1.89251 -0.848915,2.69189 -0.955847,5.32536 -0.0692,1.70423 -0.05551,3.28181 0.03042,3.50573 0.138635,0.36127 2.314554,0.40714 19.315969,0.40714 h 19.159742 z"
       style="fill:#e5261f;stroke-width:0.264583;fill-opacity:1"
       id="path718" />
  </g>
</svg>
