<?xml version="1.0" encoding="UTF-8" standalone="no"?>
<!-- Created with Inkscape (http://www.inkscape.org/) -->

<svg
   width="150mm"
   height="30mm"
   viewBox="0 0 150 30"
   version="1.1"
   id="svg5"
   xml:space="preserve"
   inkscape:version="1.2.2 (b0a8486541, 2022-12-01)"
   sodipodi:docname="logo-text.svg"
   xmlns:inkscape="http://www.inkscape.org/namespaces/inkscape"
   xmlns:sodipodi="http://sodipodi.sourceforge.net/DTD/sodipodi-0.dtd"
   xmlns="http://www.w3.org/2000/svg"
   xmlns:svg="http://www.w3.org/2000/svg"><sodipodi:namedview
     id="namedview7"
     pagecolor="#ffffff"
     bordercolor="#666666"
     borderopacity="1.0"
     inkscape:showpageshadow="2"
     inkscape:pageopacity="0.0"
     inkscape:pagecheckerboard="0"
     inkscape:deskcolor="#d1d1d1"
     inkscape:document-units="mm"
     showgrid="false"
     inkscape:zoom="1.829812"
     inkscape:cx="316.6992"
     inkscape:cy="94.271979"
     inkscape:window-width="1920"
     inkscape:window-height="1003"
     inkscape:window-x="0"
     inkscape:window-y="0"
     inkscape:window-maximized="1"
     inkscape:current-layer="layer1" /><defs
     id="defs2" /><g
     inkscape:label="Layer 1"
     inkscape:groupmode="layer"
     id="layer1"><path
       d="m 47.966979,26.292795 c -0.607121,-0.28361 -1.308425,-0.82788 -1.558456,-1.20948 -0.601298,-0.91769 -1.164873,-3.37679 -1.170017,-5.105212 l -0.0041,-1.38906 h 1.455209 1.455208 l 0.0063,1.12448 c 0.01471,2.622872 0.856681,4.167182 2.271956,4.167182 0.347681,0 0.88201,-0.24986 1.187395,-0.55524 0.491527,-0.49153 0.544663,-0.80353 0.46302,-2.718812 -0.107513,-2.5222 -0.212457,-2.6982 -3.079109,-5.16386 -2.381478,-2.04835 -3.115411,-3.14576 -3.480655,-5.20442 -0.497093,-2.8018099 0.178544,-5.0028099 1.939227,-6.3173499 1.048414,-0.78275 4.293221,-0.78432 5.368805,-0.003 1.167232,0.84833 2.018042,2.80777 2.046042,4.71205 l 0.0239,1.6242399 -1.389062,0.08 -1.389062,0.08 -0.0016,-0.8737199 c -0.0024,-1.35128 -0.498401,-2.82381 -1.051039,-3.11957 -0.835869,-0.44734 -1.798499,-0.30967 -2.239774,0.32034 -0.515281,0.73567 -0.532926,3.2589199 -0.02919,4.1744599 0.200165,0.3638 1.356807,1.50265 2.570313,2.53077 3.011924,2.55181 3.697784,3.88072 3.707314,7.18335 0.008,2.837382 -0.55224,4.408992 -1.919352,5.382462 -1.216038,0.86589 -3.648033,0.99731 -5.183357,0.28008 z m 82.508201,0.30883 c -0.33907,-0.0646 -1.07256,-0.57351 -1.62997,-1.13092 -1.49388,-1.49388 -1.64362,-2.59349 -1.54053,-11.313002 0.0972,-8.2196599 0.18374,-8.6706999 1.91799,-9.9934799 1.65849,-1.26499 4.70445,-1.24192 6.23652,0.0472 1.32998,1.11911 1.66108,2.22457 1.69115,5.6463502 l 0.0267,3.0427097 -1.38906,0.08 -1.38907,0.08 -0.002,-2.19664 c -0.002,-2.5779899 -0.35468,-4.0697999 -1.05104,-4.4424799 -0.82915,-0.44375 -2.00179,-0.31045 -2.5445,0.28925 -0.47166,0.52117 -0.50403,1.05793 -0.50403,8.3577499 v 7.800802 l 0.62462,0.50578 c 0.34355,0.27819 0.91692,0.50579 1.27417,0.50579 1.6634,0 2.19837,-1.1416 2.20078,-4.696352 l 0.002,-2.18281 h 1.48377 1.48376 l -0.0974,2.97656 c -0.0824,2.519982 -0.19842,3.179492 -0.75616,4.299482 -1.02758,2.06346 -3.13912,2.87622 -6.03779,2.32404 z M 3.959375,15.017173 V 3.5078031 h 3.7041662 3.7041678 v 1.45521 1.45521 H 9.118749 6.8697912 v 4.1010399 4.10104 h 2.2489578 2.24896 v 1.44451 1.44449 l -2.182814,0.0768 -2.1828118,0.0769 -0.07254,4.431772 -0.07254,4.43177 H 5.408193 3.959382 Z m 8.73125,0 V 3.5078031 h 1.455208 1.455209 V 15.017173 26.526545 h -1.455209 -1.455208 z m 4.233333,0 V 3.5078031 h 1.452026 1.452028 l 0.06933,9.9880199 0.06933,9.988012 2.182813,0.0768 2.182812,0.0769 v 1.44451 1.44451 h -3.704166 -3.704167 z m 8.73125,0 V 3.5078031 h 1.450168 c 1.288446,0 1.46486,0.0664 1.58193,0.59531 0.160957,0.72723 1.376212,6.1125299 2.567279,11.3767099 0.485603,2.14621 0.950441,3.90238 1.032975,3.90259 0.153567,2.6e-4 0.328771,-0.71718 1.970273,-8.0694 0.519835,-2.3283399 1.131451,-5.0370099 1.35914,-6.0192699 l 0.413986,-1.78594 h 1.426707 1.426708 V 15.017173 26.526545 h -1.455209 -1.455208 l -0.03093,-6.151572 c -0.03025,-6.01539 -0.0394,-6.11348 -0.413102,-4.43176 -0.488931,2.20025 -1.85475,8.600032 -2.075143,9.723432 -0.15476,0.78885 -0.251386,0.8599 -1.169482,0.8599 h -1.000791 l -0.297876,-1.52136 c -0.163833,-0.83674 -0.745815,-3.60494 -1.293296,-6.151562 l -0.995421,-4.6302 -0.07102,6.15155 -0.07102,6.151572 h -1.450332 -1.450332 z m 30.956246,0 V 3.5078031 h 3.70417 3.70416 v 1.45521 1.45521 h -2.24895 -2.24896 v 4.1010399 4.10104 h 2.24896 2.24895 v 1.45521 1.45519 h -2.24895 -2.24896 v 4.497922 4.49792 h -1.45521 -1.45521 z M 70.22292,25.666645 c 0.14917,-0.90532 1.28217,-8.716272 2.42742,-16.7348819 0.37411,-2.61938 0.72467,-4.91133 0.77902,-5.09323 0.0677,-0.22646 0.72545,-0.33073 2.08646,-0.33073 1.84736,0 1.99659,0.042 2.11427,0.59531 0.0696,0.32742 0.79066,5.29828 1.60225,11.0463499 0.81159,5.748072 1.53881,10.659392 1.61604,10.914062 0.12279,0.4049 -0.0576,0.46302 -1.43738,0.46302 h -1.57779 l -0.18352,-2.07325 c -0.10094,-1.14028 -0.273,-2.21802 -0.38236,-2.39496 -0.13166,-0.21302 -0.77179,-0.29474 -1.89454,-0.24186 l -1.6957,0.0799 -0.31079,2.24896 c -0.17093,1.23692 -0.31976,2.27872 -0.33073,2.3151 -0.011,0.0364 -0.68018,0.0661 -1.48714,0.0661 h -1.46721 z m 6.62017,-7.540622 c -0.0704,-0.40019 -0.30092,-2.27541 -0.51219,-4.16718 -0.7529,-6.7416999 -0.743,-6.6801399 -0.9504,-5.9107499 -0.10435,0.3871 -0.27352,1.57773 -0.37594,2.6458299 -0.10242,1.0681 -0.35152,3.13263 -0.55356,4.58784 -0.53297,3.83877 -0.61304,3.57186 1.07156,3.57186 1.43494,0 1.44739,-0.007 1.32053,-0.7276 z m 4.90379,-3.10885 V 3.5078031 h 1.45521 1.45521 V 13.561963 23.616125 h 2.24896 2.24896 v 1.45521 1.45521 h -3.70417 -3.70417 z m 8.46667,0 V 3.5078031 h 1.5875 1.5875 V 13.561963 23.616125 h 2.24896 2.24895 v 1.45521 1.45521 h -3.83645 -3.83646 z m 8.73125,0 V 3.5078031 h 1.45521 1.45521 V 15.017173 26.526545 h -1.45521 -1.45521 z m 3.83716,11.178642 c 0.12828,-0.36458 2.37389,-15.747402 2.7906,-19.1161419 0.4805,-3.88449 0.25379,-3.57187 2.59037,-3.57187 h 2.03232 l 0.75443,5.22552 c 0.41494,2.8740399 1.08559,7.4877099 1.49034,10.2525899 0.40474,2.764902 0.81541,5.592632 0.9126,6.283862 l 0.1767,1.25677 h -1.46639 c -1.65256,0 -1.57762,0.11052 -1.86313,-2.7478 -0.0855,-0.85644 -0.21916,-1.66011 -0.29692,-1.78594 -0.0778,-0.12582 -0.89536,-0.22876 -1.81688,-0.22876 -1.91334,0 -1.82221,-0.12673 -2.1405,2.97656 l -0.18317,1.78594 h -1.54837 c -1.12438,0 -1.51651,-0.0906 -1.432,-0.33073 z m 6.74133,-7.937502 c -0.003,-0.32742 -0.1723,-1.78594 -0.37698,-3.24114 -0.20467,-1.45521 -0.45622,-3.63071 -0.55899,-4.83446 -0.10277,-1.2037399 -0.27309,-2.2419199 -0.37849,-2.3070599 -0.1054,-0.0651 -0.40094,1.69365 -0.65677,3.9084199 -0.25583,2.21477 -0.551,4.71145 -0.65595,5.5482 l -0.1908,1.52135 h 1.41141 c 1.28874,0 1.411,-0.0517 1.40657,-0.59531 z m 5.03193,-3.24114 V 3.5078031 h 1.43092 1.43091 l 0.53741,1.52135 c 0.29558,0.83675 0.96651,2.65245 1.49097,4.0349 0.52446,1.3824499 1.30148,3.4746399 1.72671,4.6493099 0.42523,1.17468 1.00697,2.66295 1.29276,3.30728 l 0.5196,1.17152 0.0187,-7.34217 0.0187,-7.3421899 h 1.45521 1.45521 V 15.030383 26.552955 l -1.485,-0.0794 -1.485,-0.0793 -1.82817,-4.8948 c -1.00549,-2.692132 -2.23719,-5.966342 -2.73712,-7.276032 l -0.90896,-2.38125 -0.0112,7.34218 -0.0112,7.342192 h -1.4552 -1.45521 z m 24.07708,0 V 3.5078031 h 3.70416 3.70417 v 1.45521 1.45521 h -2.24896 -2.24896 v 3.5718702 3.5718697 h 2.24896 2.24896 v 1.45521 1.4552 h -2.24896 -2.24896 v 3.57188 3.571872 h 2.24896 2.24896 v 1.45521 1.45521 h -3.70417 -3.70416 z"
       style="fill:#000000;stroke-width:0.264583"
       id="path664" /></g></svg>
